REM DIRINDEX 1\2,1\3,1\4,1\5
REM DIRNAME folder01,folder02,folder03,folder04,folder05
TITLE ""
FILE "P1Q_t_1210-1219.mp3" MP3
  TRACK 01 AUDIO
    TITLE "3:cjc005_4536"
    INDEX 01 00:00:00
  TRACK 02 AUDIO
    TITLE "0:"
    INDEX 01 00:01:05
  TRACK 03 AUDIO
    TITLE "4:cjc005_4537"
    INDEX 01 00:01:28
  TRACK 04 AUDIO
    TITLE "0:"
    INDEX 01 00:02:51
  TRACK 05 AUDIO
    TITLE "5:cjc005_4538"
    INDEX 01 00:02:71
  TRACK 06 AUDIO
    TITLE "0:"
    INDEX 01 00:06:53
  TRACK 07 AUDIO
    TITLE "3:cjc005_4539"
    INDEX 01 00:07:25
  TRACK 08 AUDIO
    TITLE "0:"
    INDEX 01 00:08:44
  TRACK 09 AUDIO
    TITLE "4:cjc005_4540"
    INDEX 01 00:08:66
  TRACK 10 AUDIO
    TITLE "0:"
    INDEX 01 00:10:21
  TRACK 11 AUDIO
    TITLE "5:cjc005_4541"
    INDEX 01 00:10:43
  TRACK 12 AUDIO
    TITLE "0:"
    INDEX 01 00:15:44
  TRACK 13 AUDIO
    TITLE "3:cjc005_4542"
    INDEX 01 00:16:24
  TRACK 14 AUDIO
    TITLE "0:"
    INDEX 01 00:17:31
  TRACK 15 AUDIO
    TITLE "4:cjc005_4543"
    INDEX 01 00:17:61
  TRACK 16 AUDIO
    TITLE "0:"
    INDEX 01 00:19:15
  TRACK 17 AUDIO
    TITLE "5:cjc005_4544"
    INDEX 01 00:19:34
  TRACK 18 AUDIO
    TITLE "0:"
    INDEX 01 00:23:48
  TRACK 19 AUDIO
    TITLE "3:cjc005_4545"
    INDEX 01 00:24:51
  TRACK 20 AUDIO
    TITLE "0:"
    INDEX 01 00:25:66
  TRACK 21 AUDIO
    TITLE "4:cjc005_4546"
    INDEX 01 00:26:18
  TRACK 22 AUDIO
    TITLE "0:"
    INDEX 01 00:27:28
  TRACK 23 AUDIO
    TITLE "5:cjc005_4547"
    INDEX 01 00:27:53
  TRACK 24 AUDIO
    TITLE "0:"
    INDEX 01 00:30:28
  TRACK 25 AUDIO
    TITLE "3:cjc005_4548"
    INDEX 01 00:30:73
  TRACK 26 AUDIO
    TITLE "0:"
    INDEX 01 00:32:09
  TRACK 27 AUDIO
    TITLE "4:cjc005_4549"
    INDEX 01 00:32:35
  TRACK 28 AUDIO
    TITLE "0:"
    INDEX 01 00:33:56
  TRACK 29 AUDIO
    TITLE "5:cjc005_4550"
    INDEX 01 00:34:02
  TRACK 30 AUDIO
    TITLE "0:"
    INDEX 01 00:38:06
  TRACK 31 AUDIO
    TITLE "3:cjc005_4551"
    INDEX 01 00:38:59
  TRACK 32 AUDIO
    TITLE "0:"
    INDEX 01 00:39:64
  TRACK 33 AUDIO
    TITLE "4:cjc005_4552"
    INDEX 01 00:40:15
  TRACK 34 AUDIO
    TITLE "0:"
    INDEX 01 00:41:45
  TRACK 35 AUDIO
    TITLE "5:cjc005_4553"
    INDEX 01 00:41:67
  TRACK 36 AUDIO
    TITLE "0:"
    INDEX 01 00:45:55
  TRACK 37 AUDIO
    TITLE "3:cjc005_4554"
    INDEX 01 00:46:29
  TRACK 38 AUDIO
    TITLE "0:"
    INDEX 01 00:47:42
  TRACK 39 AUDIO
    TITLE "4:cjc005_4555"
    INDEX 01 00:47:66
  TRACK 40 AUDIO
    TITLE "0:"
    INDEX 01 00:49:08
  TRACK 41 AUDIO
    TITLE "5:cjc005_4556"
    INDEX 01 00:49:29
  TRACK 42 AUDIO
    TITLE "0:"
    INDEX 01 00:54:54
  TRACK 43 AUDIO
    TITLE "3:cjc005_4557"
    INDEX 01 00:55:28
  TRACK 44 AUDIO
    TITLE "0:"
    INDEX 01 00:56:41
  TRACK 45 AUDIO
    TITLE "4:cjc005_4558"
    INDEX 01 00:56:67
  TRACK 46 AUDIO
    TITLE "0:"
    INDEX 01 00:58:17
  TRACK 47 AUDIO
    TITLE "5:cjc005_4559"
    INDEX 01 00:58:40
  TRACK 48 AUDIO
    TITLE "0:"
    INDEX 01 01:03:04
  TRACK 49 AUDIO
    TITLE "3:cjc005_4560"
    INDEX 01 01:03:57
  TRACK 50 AUDIO
    TITLE "0:"
    INDEX 01 01:05:03
  TRACK 51 AUDIO
    TITLE "4:cjc005_4561"
    INDEX 01 01:05:28
  TRACK 52 AUDIO
    TITLE "0:"
    INDEX 01 01:06:71
  TRACK 53 AUDIO
    TITLE "5:cjc005_4562"
    INDEX 01 01:07:17
  TRACK 54 AUDIO
    TITLE "0:"
    INDEX 01 01:11:09
  TRACK 55 AUDIO
    TITLE "3:cjc005_4563"
    INDEX 01 01:11:60
  TRACK 56 AUDIO
    TITLE "0:"
    INDEX 01 01:13:00
  TRACK 57 AUDIO
    TITLE "4:cjc005_4564"
    INDEX 01 01:13:22
  TRACK 58 AUDIO
    TITLE "0:"
    INDEX 01 01:14:33
  TRACK 59 AUDIO
    TITLE "5:cjc005_4565"
    INDEX 01 01:14:57
  TRACK 60 AUDIO
    TITLE "0:"
    INDEX 01 01:18:09
